<svg width="300" height="80" viewBox="0 0 300 80" fill="none" xmlns="http://www.w3.org/2000/svg">
<path d="M76.1984 30.0828C79.2991 29.9745 82.3717 30.7063 85.091 32.2009C87.5863 33.5941 89.609 35.7014 90.8986 38.2527C91.7061 39.7514 92.2324 41.3856 92.4513 43.074C92.7089 45.2634 92.8366 47.4671 92.8341 49.6716V72.3064C93.0355 74.3167 92.4506 76.3273 91.2013 77.9148C90.0561 79.1566 88.4439 79.863 86.755 79.863C85.0662 79.863 83.454 79.1565 82.3088 77.9148C80.949 76.45 80.2239 74.5055 80.2922 72.5076V51.5671C80.5115 48.3883 79.9795 45.2023 78.7394 42.2673C77.7715 40.3307 75.4524 39.1804 71.964 39.1804C69.7764 39.1403 67.6413 39.8528 65.9152 41.198C64.0617 42.5571 62.6569 44.4408 61.882 46.6052C61.1039 49.9694 60.7784 53.4224 60.9142 56.8728L61.0754 72.3064C61.2884 74.324 60.734 76.3483 59.5226 77.9753C58.448 79.3254 56.7897 80.0756 55.0666 79.9919C53.3572 80.0343 51.7222 79.2915 50.63 77.9753C49.518 76.3998 48.9708 74.4939 49.0773 72.5681L48.9367 37.1833C48.8271 35.3168 49.3685 33.4701 50.4689 31.9587C52.3717 30.0074 55.3435 29.5696 57.7277 30.8894C58.5402 31.5284 59.2246 32.316 59.7443 33.2097C60.3287 34.356 60.6008 35.6367 60.5314 36.9216V37.5671C62.368 35.356 64.5962 33.5028 67.1047 32.1003C69.961 30.7973 73.0593 30.1098 76.1984 30.0828Z" fill="#003A9B"/>
<path fill-rule="evenodd" clip-rule="evenodd" d="M139.939 12.1306C141.544 12.0198 143.098 12.7248 144.072 14.0066C145.208 15.6325 145.761 17.5941 145.645 19.574V72.8328C145.842 74.7707 145.294 76.7112 144.112 78.2595C142.973 79.38 141.435 80.0042 139.837 79.9949C138.24 80.0334 136.698 79.4043 135.583 78.2595C134.365 76.7218 133.748 74.7924 133.849 72.8328V71.6833C132.324 73.3839 130.643 74.9372 128.827 76.323C127.265 77.5334 125.495 78.4494 123.605 79.0261L121.266 79.6111C119.995 79.8485 118.706 79.9773 117.414 79.9949C114.523 79.9518 111.677 79.2623 109.086 77.9773C106.526 76.7599 104.277 74.9727 102.513 72.7527C100.574 70.3714 99.1279 67.6276 98.258 64.6824C97.3812 61.3915 96.9276 58.0021 96.9074 54.5964C96.9074 47.0515 98.8435 41.0591 102.715 36.8025C106.554 32.5499 112.074 30.2099 117.798 30.4079C119.025 30.3689 120.253 30.4358 121.468 30.6091C123.361 30.764 125.204 31.2923 126.892 32.1628C129.68 33.536 132.174 35.4413 134.232 37.7712V19.7761C134.132 17.7819 134.676 15.8079 135.784 14.1472C136.733 12.809 138.301 12.0488 139.939 12.1306ZM121.486 38.9402C119.299 38.9098 117.167 39.6211 115.437 40.9578C113.471 42.2611 111.979 44.1645 111.182 46.3845C110.131 49.0282 109.604 51.8512 109.629 54.696C109.583 57.608 110.111 60.5006 111.182 63.2087C111.983 65.3734 113.48 67.2117 115.437 68.4343C119.088 70.7015 123.689 70.7786 127.414 68.6355C129.421 67.4994 130.989 65.7241 131.87 63.5925H131.91C133.223 60.745 133.845 57.6273 133.726 54.4939C133.757 51.6503 133.236 48.8275 132.193 46.1824C131.194 44.0778 129.657 42.2752 127.736 40.9578C125.991 39.6484 123.869 38.9403 121.688 38.9402H121.486Z" fill="#003A9B"/>
<path fill-rule="evenodd" clip-rule="evenodd" d="M294.335 12.1277C295.907 12.044 297.418 12.747 298.367 14.0037C299.51 15.6272 300.072 17.5895 299.961 19.572V72.7693C300.158 74.7072 299.609 76.6477 298.428 78.196C297.293 79.3116 295.764 79.9354 294.173 79.9314C292.574 79.9774 291.03 79.3472 289.919 78.196C288.68 76.6684 288.054 74.7335 288.164 72.7693V71.6199C286.64 73.3204 284.959 74.8738 283.144 76.2595C281.581 77.47 279.811 78.3859 277.921 78.9626L275.602 79.5486C274.324 79.7849 273.029 79.9127 271.731 79.9314C268.839 79.8884 265.993 79.1989 263.402 77.9138C260.87 76.7061 258.643 74.9409 256.889 72.7497C254.95 70.3686 253.505 67.6255 252.635 64.6804C251.768 61.3873 251.314 57.9988 251.283 54.5935C251.283 47.0485 253.219 41.0562 257.091 36.7995C260.93 32.5469 266.45 30.2069 272.174 30.405C273.401 30.3659 274.629 30.4338 275.844 30.6072C277.737 30.762 279.58 31.2894 281.268 32.1599C284.059 33.5277 286.554 35.4338 288.608 37.7683V19.7732C288.508 17.7792 289.052 15.8059 290.16 14.1453C291.118 12.8065 292.691 12.0464 294.335 12.1277ZM275.791 38.9402C273.605 38.9098 271.473 39.6211 269.742 40.9578C267.777 42.2612 266.285 44.1645 265.487 46.3845C264.437 49.0282 263.909 51.8511 263.935 54.696C263.889 57.608 264.417 60.5006 265.487 63.2087C266.289 65.3735 267.785 67.2117 269.742 68.4343C273.426 70.7411 278.083 70.8183 281.841 68.6355C283.841 67.4971 285.403 65.722 286.277 63.5925H286.217C287.537 60.747 288.166 57.629 288.052 54.4939C288.077 51.649 287.55 48.8261 286.499 46.1824C285.501 44.0776 283.963 42.2752 282.042 40.9578C280.297 39.6483 278.175 38.9402 275.993 38.9402H275.791Z" fill="#003A9B"/>
<path d="M40.0636 71.8249C40.2508 74.0336 39.5214 76.2222 38.047 77.8767C36.6935 79.1677 34.8956 79.8901 33.0256 79.8943C31.1882 79.8936 29.4341 79.1257 28.1867 77.7761C26.7123 76.1215 25.9828 73.9321 26.1701 71.7234L26.3713 42.5124C27.2484 42.675 28.1423 42.736 29.0334 42.6941C32.9054 42.7462 36.7192 41.7415 40.0636 39.7888V71.8249Z" fill="#003A9B"/>
<path fill-rule="evenodd" clip-rule="evenodd" d="M225.096 30.0847H225.48C229.864 29.999 234.196 31.0637 238.042 33.1716C241.397 34.9123 244.161 37.6077 245.986 40.9177C247.681 43.9352 248.609 47.323 248.689 50.7829C248.689 53.9299 247.721 55.8664 245.986 56.8347C243.59 57.7997 240.998 58.18 238.425 57.9441H214.046C214.094 60.5521 214.685 63.1222 215.78 65.489C217.673 69.1312 221.361 71.4907 225.459 71.6824H226.427C227.792 71.695 229.151 71.505 230.46 71.1179C231.716 70.8418 232.903 70.3127 233.948 69.5642C235.118 68.7776 236.268 68.2129 237.236 67.2449C238.203 66.2766 239.554 65.1061 241.107 63.7546C241.875 63.1607 242.843 62.8862 243.809 62.988C244.934 62.8604 246.061 63.2116 246.914 63.9558C247.797 64.7168 248.172 65.9135 247.882 67.0427C247.819 68.4378 247.349 69.7842 246.531 70.9158C245.394 72.5169 244.035 73.9503 242.498 75.1726C240.424 76.613 238.138 77.7233 235.723 78.4617C232.732 79.4404 229.594 79.8977 226.447 79.8132H225.096C217.757 79.4298 211.928 77.3114 207.674 73.0349C203.023 68.1684 200.573 61.603 200.899 54.8777C200.857 51.4363 201.452 48.0168 202.653 44.7917C203.72 41.8457 205.365 39.142 207.492 36.8425C209.676 34.6331 212.311 32.9195 215.216 31.8191C218.367 30.6101 221.722 30.0214 225.096 30.0847ZM225.477 38.3953C222.627 38.2579 219.862 39.3971 217.935 41.5027C215.655 44.0668 214.349 47.3518 214.245 50.782H236.89C236.805 47.3841 235.576 44.1145 233.402 41.5027C231.321 39.3887 228.439 38.2583 225.477 38.3953Z" fill="#003A9B"/>
<path fill-rule="evenodd" clip-rule="evenodd" d="M175.366 30.0837H175.749C180.137 30.0239 184.469 31.0868 188.332 33.1706C191.645 34.9619 194.39 37.646 196.257 40.9177C197.908 43.9433 198.775 47.3348 198.778 50.782C198.777 53.929 197.809 55.8664 196.075 56.8347C193.69 57.8463 191.098 58.2754 188.514 58.0857H164.154C164.104 60.7048 164.7 63.2967 165.889 65.6306C166.955 67.5363 168.489 69.1403 170.345 70.2908C171.959 71.1821 173.765 71.6727 175.609 71.7224H177.088C178.281 71.6977 179.467 71.5078 180.61 71.158C181.934 70.9225 183.189 70.391 184.279 69.6042C185.368 68.8178 186.416 68.2527 187.384 67.2849C188.352 66.3167 189.704 65.1461 191.256 63.7947C192.024 63.2007 192.993 62.9262 193.958 63.0281C195.102 62.9982 196.215 63.4097 197.064 64.1775C197.858 64.9279 198.279 65.992 198.213 67.0828C198.15 68.478 197.68 69.8242 196.861 70.9558C195.725 72.5583 194.367 73.9919 192.828 75.2126C190.728 76.6365 188.423 77.7322 185.993 78.4607C182.995 79.4379 179.85 79.8951 176.697 79.8122H175.366C168.047 79.4288 162.219 77.3106 157.964 73.0339C153.305 68.1727 150.853 61.6044 151.189 54.8777C151.15 51.4381 151.738 48.0198 152.923 44.7908C154.007 41.8532 155.651 39.1538 157.763 36.8425C159.954 34.6326 162.595 32.9192 165.506 31.8191C168.655 30.6282 172 30.0392 175.366 30.0837ZM175.37 38.6394C172.525 38.5082 169.766 39.6376 167.828 41.7263C165.7 44.3876 164.421 47.6282 164.158 51.0261H186.783C186.694 47.623 185.465 44.3484 183.295 41.7263C181.206 39.6263 178.328 38.5049 175.37 38.6394Z" fill="#003A9B"/>
<path d="M26.1662 1.84057C34.4941 -1.06444 44.1528 -0.923412 51.5129 5.12865C52.9988 6.39861 54.184 7.98336 54.9816 9.7683C55.5663 12.1284 52.279 9.60685 51.8957 9.22338C49.526 7.83304 47.0675 6.59989 44.5363 5.53197C30.2195 1.27532 16.8906 9.0221 8.56266 20.9851C5.26669 26.2805 2.7277 32.0116 1.02067 38.0115C0.858183 38.7957 0.594075 39.5556 0.234537 40.2712C-0.147386 40.7535 0.0517722 38.2676 0.0528966 38.2537C0.436019 35.732 1.02087 33.412 1.60563 30.8904C5.4772 17.838 13.9869 6.88402 26.1662 1.84057Z" fill="#003A9B"/>
<path d="M27.7209 16.3855C32.7441 13.8318 38.8861 15.8254 41.4533 20.8435C42.7234 23.2209 42.966 26.0152 42.1242 28.5759C41.2824 31.1367 39.4289 33.241 36.9963 34.4001C31.9722 36.9417 25.8398 34.9508 23.2648 29.9421C22.0577 27.5535 21.8491 24.7826 22.6847 22.24C23.5205 19.6974 25.3323 17.5912 27.7209 16.3855Z" fill="#003A9B"/>
</svg>
